<svg width="718" height="729" viewBox="0 0 718 729" fill="none" xmlns="http://www.w3.org/2000/svg">
<rect x="705" width="13" height="80" rx="6.5" fill="#FB7AFC"/>
<rect x="705" y="127" width="13" height="80" rx="6.5" fill="#FB7AFC"/>
<rect x="705" y="254" width="13" height="80" rx="6.5" fill="#FB7AFC"/>
<rect x="705" y="381" width="13" height="80" rx="6.5" fill="#FB7AFC"/>
<rect x="705" y="508" width="13" height="80" rx="6.5" fill="#FB7AFC"/>
<rect x="705" y="635" width="13" height="80" rx="6.5" fill="#FB7AFC"/>
<rect x="655.047" y="715.291" width="13" height="80" rx="6.5" transform="rotate(90.2084 655.047 715.291)" fill="#FB7AFC"/>
<rect x="541.047" y="715.291" width="13" height="80" rx="6.5" transform="rotate(90.2084 541.047 715.291)" fill="#FB7AFC"/>
<rect x="427.047" y="715.291" width="13" height="80" rx="6.5" transform="rotate(90.2084 427.047 715.291)" fill="#FB7AFC"/>
<rect x="313.047" y="715.291" width="13" height="80" rx="6.5" transform="rotate(90.2084 313.047 715.291)" fill="#FB7AFC"/>
<rect x="194.094" y="715.291" width="13" height="80" rx="6.5" transform="rotate(90.2084 194.094 715.291)" fill="#FB7AFC"/>
<rect x="80.0468" y="715.291" width="13" height="80" rx="6.5" transform="rotate(90.2084 80.0468 715.291)" fill="#FB7AFC"/>
</svg>
