<svg width="70" height="60" viewBox="0 0 70 60" fill="none" xmlns="http://www.w3.org/2000/svg">
<g clip-path="url(#clip0)">
<path d="M42.8065 26.7097H40.3226C40.1344 26.7097 39.9539 26.7844 39.8208 26.9175C39.6877 27.0506 39.6129 27.2311 39.6129 27.4193V29.5484H37.4839V27.4193C37.4839 27.2311 37.4091 27.0506 37.276 26.9175C37.1429 26.7844 36.9624 26.7097 36.7742 26.7097H33.2258C33.0376 26.7097 32.8571 26.7844 32.724 26.9175C32.5909 27.0506 32.5161 27.2311 32.5161 27.4193V29.5484H30.3915V27.4193C30.3915 27.2311 30.3168 27.0506 30.1837 26.9175C30.0506 26.7844 29.8701 26.7097 29.6819 26.7097H27.1936C27.0053 26.7097 26.8248 26.7844 26.6917 26.9175C26.5587 27.0506 26.4839 27.2311 26.4839 27.4193V35.2258L29.3226 36.6451C29.3226 38.7888 29.2543 40.8588 28.7367 43.7419H41.2634C40.7457 40.8588 40.6774 38.7618 40.6774 36.6451L43.5161 35.2258V27.4193C43.5161 27.2311 43.4414 27.0506 43.3083 26.9175C43.1752 26.7844 42.9947 26.7097 42.8065 26.7097ZM36.4194 39.4838H33.5807V36.6451C33.5807 36.2687 33.7302 35.9077 33.9964 35.6415C34.2626 35.3753 34.6236 35.2258 35 35.2258C35.3765 35.2258 35.7375 35.3753 36.0037 35.6415C36.2698 35.9077 36.4194 36.2687 36.4194 36.6451V39.4838ZM42.8065 45.1613H27.1936C27.0053 45.1613 26.8248 45.236 26.6917 45.3691C26.5587 45.5022 26.4839 45.6827 26.4839 45.8709V47.2903C26.4839 47.4785 26.5587 47.659 26.6917 47.7921C26.8248 47.9252 27.0053 48 27.1936 48H42.8065C42.9947 48 43.1752 47.9252 43.3083 47.7921C43.4414 47.659 43.5161 47.4785 43.5161 47.2903V45.8709C43.5161 45.6827 43.4414 45.5022 43.3083 45.3691C43.1752 45.236 42.9947 45.1613 42.8065 45.1613Z" fill="white"/>
</g>
<path d="M31.9689 8.25C33.3161 5.91667 36.6839 5.91667 38.0311 8.25L64.0119 53.25C65.359 55.5833 63.6751 58.5 60.9808 58.5H9.01924C6.32494 58.5 4.641 55.5833 5.98815 53.25L31.9689 8.25Z" stroke="white" stroke-width="3"/>
<defs>
<clipPath id="clip0">
<rect width="17.0323" height="22.7097" fill="white" transform="translate(26.4839 25.2903)"/>
</clipPath>
</defs>
</svg>
