<svg width="80" height="80" viewBox="0 0 80 80" fill="none" xmlns="http://www.w3.org/2000/svg">
<path d="M78.81 16.4566C76.0267 17.6899 73.0367 18.5233 69.8933 18.8999C73.1367 16.9592 75.5631 13.9048 76.72 10.3066C73.6728 12.1166 70.3378 13.3906 66.86 14.0733C64.5213 11.5761 61.4235 9.92102 58.0477 9.36484C54.672 8.80867 51.207 9.38257 48.1908 10.9974C45.1746 12.6123 42.7759 15.1778 41.3672 18.2956C39.9584 21.4134 39.6184 24.9091 40.4 28.2399C34.2256 27.9299 28.1854 26.3251 22.6714 23.5296C17.1574 20.7341 12.2928 16.8105 8.39332 12.0133C7.05999 14.3133 6.29332 16.9799 6.29332 19.8199C6.29183 22.3766 6.92143 24.8941 8.12625 27.149C9.33107 29.404 11.0739 31.3267 13.2 32.7466C10.7342 32.6681 8.3229 32.0019 6.16666 30.8033V31.0033C6.16641 34.5891 7.40676 38.0645 9.67727 40.8399C11.9478 43.6153 15.1086 45.5197 18.6233 46.2299C16.3359 46.849 13.9378 46.9402 11.61 46.4966C12.6016 49.582 14.5333 52.28 17.1345 54.213C19.7358 56.146 22.8764 57.2172 26.1167 57.2766C20.6161 61.5946 13.8229 63.9369 6.82999 63.9266C5.59126 63.9269 4.35358 63.8546 3.12332 63.7099C10.2216 68.2738 18.4845 70.696 26.9233 70.6866C55.49 70.6866 71.1067 47.0266 71.1067 26.5066C71.1067 25.8399 71.09 25.1666 71.06 24.4999C74.0976 22.3032 76.7197 19.5829 78.8033 16.4666L78.81 16.4566Z" fill="white"/>
</svg>
